<svg width="27" height="32" viewBox="0 0 27 32" fill="none" xmlns="http://www.w3.org/2000/svg">
<path opacity="0.5" d="M10.7743 4.49214C12.8791 1.97369 13.9315 0.71447 15.1413 0.908423C16.3511 1.10238 16.9171 2.62106 18.049 5.65842L18.3419 6.44422C18.6635 7.30734 18.8244 7.73891 19.1373 8.05681C19.4502 8.37472 19.8798 8.54297 20.739 8.87949L21.5212 9.18586C24.5448 10.3701 26.0566 10.9622 26.229 12.1724C26.4014 13.3826 25.1203 14.4095 22.558 16.4632L21.8951 16.9946C21.167 17.5782 20.803 17.87 20.5922 18.2694C20.3815 18.6688 20.3479 19.1306 20.2808 20.0543L20.2197 20.8952C19.9836 24.1455 19.8655 25.7707 18.7623 26.3247C17.659 26.8787 16.3013 25.9946 13.5858 24.2266L12.8833 23.7691C12.1116 23.2667 11.7258 23.0155 11.2826 22.9444C10.8394 22.8734 10.3891 22.9905 9.48841 23.2249L8.66842 23.4382C5.49891 24.2628 3.91416 24.6751 3.05991 23.8073C2.20566 22.9394 2.64765 21.3662 3.53164 18.2197L3.76034 17.4057C4.01154 16.5116 4.13714 16.0645 4.07398 15.6212C4.01082 15.1779 3.76605 14.7884 3.27651 14.0096L2.83083 13.3006C1.10812 10.5599 0.246772 9.18953 0.822046 8.09917C1.39732 7.00881 3.02823 6.92054 6.29007 6.744L7.13394 6.69833C8.06085 6.64816 8.52431 6.62308 8.92844 6.42013C9.33258 6.21719 9.63164 5.85936 10.2298 5.14369L10.7743 4.49214Z" fill="#2684FC"/>
<path d="M18.6469 14.7913C17.0683 12.9025 16.279 11.9581 15.3717 12.1035C14.4643 12.249 14.0398 13.388 13.1909 15.666L12.9712 16.2554C12.73 16.9027 12.6094 17.2264 12.3747 17.4648C12.14 17.7032 11.8178 17.8294 11.1734 18.0818L10.5867 18.3116C8.31905 19.1997 7.18522 19.6438 7.0559 20.5515C6.92659 21.4592 7.88744 22.2293 9.80913 23.7696L10.3063 24.1681C10.8524 24.6058 11.1254 24.8247 11.2835 25.1242C11.4415 25.4238 11.4667 25.7702 11.517 26.4629L11.5628 27.0936C11.74 29.5313 11.8285 30.7502 12.6559 31.1657C13.4834 31.5812 14.5017 30.9182 16.5383 29.5921L17.0652 29.2491C17.6439 28.8722 17.9333 28.6838 18.2657 28.6305C18.5981 28.5772 18.9358 28.6651 19.6113 28.8409L20.2263 29.0009C22.6035 29.6193 23.792 29.9285 24.4327 29.2777C25.0734 28.6268 24.7419 27.4469 24.0789 25.087L23.9074 24.4765C23.719 23.8059 23.6248 23.4706 23.6722 23.1381C23.7195 22.8056 23.9031 22.5135 24.2703 21.9294L24.6045 21.3976C25.8965 19.3421 26.5426 18.3144 26.1111 17.4966C25.6796 16.6788 24.4565 16.6126 22.0101 16.4802L21.3772 16.4459C20.682 16.4083 20.3344 16.3895 20.0313 16.2373C19.7282 16.0851 19.5039 15.8167 19.0553 15.28L18.6469 14.7913Z" fill="#413B89"/>
</svg>
